# xmcd
#
# Track frame offsets:
#	150
#	13857
#	24837
#	36107
#	45538
#	58715
#	70910
#	82955
#	94604
#	108936
#	120211
#	135547
#	148349
#	160565
#	172575
#	184432
#
# Disc length: 2653
#
# Revision: 1
# Processed by: cddbd v1.5.1PL0 Copyright (c) Steve Scherf et al.
# Submitted via: CDex 1.51
# Normalized: r0:TDELIM( - )
#
DISCID=c30a5b10
DTITLE=Various Artist - Immer wieder tanzen - Swing in Deutschland 1934-1948 CD2
DYEAR=1900
DGENRE=Jazz
TTITLE0=Oscar Joost und sein Orchester - The Music goes 'round and 'round
TTITLE1=Die Goldene Sieben - Immer wieder tanzen
TTITLE2=James Kok Tanz-Orchester - Parade der Xylophonisten
TTITLE3=Kurt Hohenberger Orchester - Nice People
TTITLE4=Willy Berking mit seinem Orchester - Feuerwerk
TTITLE5=Trio Teddy Kleindin - Klarinettenzauber
TTITLE6=Hans Georg Schütz Tanzorchester - Hallo Benny
TTITLE7=Deutsches Tanz- und Unterhaltungsorchester - Ich hab' ein paar Küsse
TTITLE8=Orchester Willi Stech - Rugby
TTITLE9=Helmut Zacharias und seine Solisten - Gut gelaunt
TTITLE10=Hans Brändle und sein Orchester - Indian Boogie Woogie (Rhythmus in Indien)
TTITLE11=Jean Omer und sein Orchester - Obsession
TTITLE12=Orchestra Hazy Osterwald - Indiana
TTITLE13=Kurt Henkels und sein Orchester - Apple Honey
TTITLE14=Horst Kudritzky and das RBT-Orchester - Jimmie Lunceford
TTITLE15=Joe Wick mit seinen Solisten - On the sunny Side of the Street
EXTD=
EXTT0=
EXTT1=
EXTT2=
EXTT3=
EXTT4=
EXTT5=
EXTT6=
EXTT7=
EXTT8=
EXTT9=
EXTT10=
EXTT11=
EXTT12=
EXTT13=
EXTT14=
EXTT15=
PLAYORDER=
